<?xml version="1.0" encoding="UTF-8" standalone="no" ?>
<!DOCTYPE svg PUBLIC "-//W3C//DTD SVG 1.1//EN" "http://www.w3.org/Graphics/SVG/1.1/DTD/svg11.dtd">
<svg xmlns="http://www.w3.org/2000/svg" xmlns:xlink="http://www.w3.org/1999/xlink" version="1.1" width="255.98000000000002" height="227.5566" xml:space="preserve">
<desc>Created with Fabric.js 1.6.0-rc.1</desc>
<defs></defs>
<g style="stroke: none; stroke-width: 1; stroke-dasharray: none; stroke-linecap: butt; stroke-linejoin: miter; stroke-miterlimit: 10; fill: none; fill-rule: nonzero; opacity: 1;" transform="translate(10 10) scale(0.46 0.46)" >
  <path d="M 485.517 61.793 H 26.483 C 11.857 61.793 0 73.65 0 88.276 v 335.448 c 0 14.626 11.857 26.483 26.483 26.483 h 459.034 c 14.626 0 26.483 -11.857 26.483 -26.483 V 88.276 C 512 73.65 500.143 61.793 485.517 61.793 z M 441.379 79.448 h 8.828 c 4.875 0 8.828 3.953 8.828 8.828 c 0 4.875 -3.953 8.828 -8.828 8.828 h -8.828 c -4.875 0 -8.828 -3.953 -8.828 -8.828 C 432.552 83.401 436.504 79.448 441.379 79.448 z M 194.207 79.448 h 211.862 c 4.875 0 8.828 3.953 8.828 8.828 c 0 4.875 -3.953 8.828 -8.828 8.828 H 194.207 c -4.875 0 -8.828 -3.953 -8.828 -8.828 C 185.379 83.401 189.332 79.448 194.207 79.448 z M 150.069 79.448 h 8.828 c 4.875 0 8.828 3.953 8.828 8.828 c 0 4.875 -3.953 8.828 -8.828 8.828 h -8.828 c -4.875 0 -8.828 -3.953 -8.828 -8.828 C 141.241 83.401 145.194 79.448 150.069 79.448 z M 114.759 79.448 h 8.828 c 4.875 0 8.828 3.953 8.828 8.828 c 0 4.875 -3.953 8.828 -8.828 8.828 h -8.828 c -4.875 0 -8.828 -3.953 -8.828 -8.828 C 105.931 83.401 109.884 79.448 114.759 79.448 z M 79.448 79.448 c 4.875 0 8.828 3.953 8.828 8.828 c 0 4.875 -3.953 8.828 -8.828 8.828 c -4.875 0 -8.828 -3.953 -8.828 -8.828 C 70.621 83.401 74.573 79.448 79.448 79.448 z M 52.966 79.448 c 4.875 0 8.828 3.953 8.828 8.828 c 0 4.875 -3.953 8.828 -8.828 8.828 s -8.828 -3.953 -8.828 -8.828 C 44.138 83.401 48.09 79.448 52.966 79.448 z M 26.483 79.448 c 4.875 0 8.828 3.953 8.828 8.828 c 0 4.875 -3.953 8.828 -8.828 8.828 s -8.828 -3.953 -8.828 -8.828 C 17.655 83.401 21.608 79.448 26.483 79.448 z M 494.345 167.724 v 256 c 0 4.875 -3.953 8.828 -8.828 8.828 H 26.483 c -4.875 0 -8.828 -3.953 -8.828 -8.828 v -256 v -44.138 c 0 -4.875 3.953 -8.828 8.828 -8.828 h 459.034 c 4.875 0 8.828 3.953 8.828 8.828 V 167.724 z M 485.517 97.103 h -8.828 c -4.875 0 -8.828 -3.953 -8.828 -8.828 c 0 -4.875 3.953 -8.828 8.828 -8.828 h 8.828 c 4.875 0 8.828 3.953 8.828 8.828 C 494.345 93.151 490.392 97.103 485.517 97.103 z" style="stroke: none; stroke-width: 1; stroke-dasharray: none; stroke-linecap: butt; stroke-linejoin: miter; stroke-miterlimit: 10; fill: #D2DCF0; fill-rule: nonzero; opacity: 1;" transform=" matrix(1 0 0 1 0 0) " stroke-linecap="round" />
  <path d="M 17.655 423.724 c 0 4.875 3.953 8.828 8.828 8.828 h 459.034 c 4.875 0 8.828 -3.953 8.828 -8.828 v -256 H 17.655 V 423.724 z M 379.586 211.862 v -8.828 c 0 -4.875 3.953 -8.828 8.828 -8.828 h 70.621 c 4.875 0 8.828 3.953 8.828 8.828 v 8.828 v 70.621 c 0 4.875 -3.953 8.828 -8.828 8.828 h -70.621 c -4.875 0 -8.828 -3.953 -8.828 -8.828 V 211.862 z M 264.828 211.862 v -8.828 c 0 -4.875 3.953 -8.828 8.828 -8.828 h 70.621 c 4.875 0 8.828 3.953 8.828 8.828 v 8.828 v 70.621 c 0 4.875 -3.953 8.828 -8.828 8.828 h -70.621 c -4.875 0 -8.828 -3.953 -8.828 -8.828 V 211.862 z M 264.828 326.621 c 0 -4.875 3.953 -8.828 8.828 -8.828 h 8.828 h 176.552 c 4.875 0 8.828 3.953 8.828 8.828 v 70.621 c 0 4.875 -3.953 8.828 -8.828 8.828 H 282.483 h -8.828 c -4.875 0 -8.828 -3.953 -8.828 -8.828 V 326.621 z M 44.138 203.034 c 0 -4.875 3.953 -8.828 8.828 -8.828 h 176.552 c 4.875 0 8.828 3.953 8.828 8.828 v 194.207 c 0 4.875 -3.953 8.828 -8.828 8.828 h -10.243 H 63.192 H 52.966 c -4.875 0 -8.828 -3.953 -8.828 -8.828 V 203.034 z" style="stroke: none; stroke-width: 1; stroke-dasharray: none; stroke-linecap: butt; stroke-linejoin: miter; stroke-miterlimit: 10; fill: #FFFFFF; fill-rule: nonzero; opacity: 1;" transform=" matrix(1 0 0 1 0 0) " stroke-linecap="round" />
  <circle cx="26.488" cy="88.278" r="8.828" style="stroke: none; stroke-width: 1; stroke-dasharray: none; stroke-linecap: butt; stroke-linejoin: miter; stroke-miterlimit: 10; fill: #FF6469; fill-rule: nonzero; opacity: 1;" transform="  matrix(1 0 0 1 0 0) "/>
  <circle cx="52.968" cy="88.278" r="8.828" style="stroke: none; stroke-width: 1; stroke-dasharray: none; stroke-linecap: butt; stroke-linejoin: miter; stroke-miterlimit: 10; fill: #FFE169; fill-rule: nonzero; opacity: 1;" transform="  matrix(1 0 0 1 0 0) "/>
  <circle cx="79.44800000000001" cy="88.278" r="8.828" style="stroke: none; stroke-width: 1; stroke-dasharray: none; stroke-linecap: butt; stroke-linejoin: miter; stroke-miterlimit: 10; fill: #87E1AA; fill-rule: nonzero; opacity: 1;" transform="  matrix(1 0 0 1 0 0) "/>
  <path d="M 114.759 97.103 h 8.828 c 4.875 0 8.828 -3.953 8.828 -8.828 c 0 -4.875 -3.953 -8.828 -8.828 -8.828 h -8.828 c -4.875 0 -8.828 3.953 -8.828 8.828 C 105.931 93.151 109.884 97.103 114.759 97.103 z" style="stroke: none; stroke-width: 1; stroke-dasharray: none; stroke-linecap: butt; stroke-linejoin: miter; stroke-miterlimit: 10; fill: #E4EAF6; fill-rule: nonzero; opacity: 1;" transform=" matrix(1 0 0 1 0 0) " stroke-linecap="round" />
  <path d="M 150.069 97.103 h 8.828 c 4.875 0 8.828 -3.953 8.828 -8.828 c 0 -4.875 -3.953 -8.828 -8.828 -8.828 h -8.828 c -4.875 0 -8.828 3.953 -8.828 8.828 C 141.241 93.151 145.194 97.103 150.069 97.103 z" style="stroke: none; stroke-width: 1; stroke-dasharray: none; stroke-linecap: butt; stroke-linejoin: miter; stroke-miterlimit: 10; fill: #E4EAF6; fill-rule: nonzero; opacity: 1;" transform=" matrix(1 0 0 1 0 0) " stroke-linecap="round" />
  <path d="M 441.379 97.103 h 8.828 c 4.875 0 8.828 -3.953 8.828 -8.828 c 0 -4.875 -3.953 -8.828 -8.828 -8.828 h -8.828 c -4.875 0 -8.828 3.953 -8.828 8.828 C 432.552 93.151 436.504 97.103 441.379 97.103 z" style="stroke: none; stroke-width: 1; stroke-dasharray: none; stroke-linecap: butt; stroke-linejoin: miter; stroke-miterlimit: 10; fill: #E4EAF6; fill-rule: nonzero; opacity: 1;" transform=" matrix(1 0 0 1 0 0) " stroke-linecap="round" />
  <path d="M 485.517 79.448 h -8.828 c -4.875 0 -8.828 3.953 -8.828 8.828 c 0 4.875 3.953 8.828 8.828 8.828 h 8.828 c 4.875 0 8.828 -3.953 8.828 -8.828 C 494.345 83.401 490.392 79.448 485.517 79.448 z" style="stroke: none; stroke-width: 1; stroke-dasharray: none; stroke-linecap: butt; stroke-linejoin: miter; stroke-miterlimit: 10; fill: #E4EAF6; fill-rule: nonzero; opacity: 1;" transform=" matrix(1 0 0 1 0 0) " stroke-linecap="round" />
  <path d="M 194.207 97.103 h 211.862 c 4.875 0 8.828 -3.953 8.828 -8.828 c 0 -4.875 -3.953 -8.828 -8.828 -8.828 H 194.207 c -4.875 0 -8.828 3.953 -8.828 8.828 C 185.379 93.151 189.332 97.103 194.207 97.103 z" style="stroke: none; stroke-width: 1; stroke-dasharray: none; stroke-linecap: butt; stroke-linejoin: miter; stroke-miterlimit: 10; fill: #E4EAF6; fill-rule: nonzero; opacity: 1;" transform=" matrix(1 0 0 1 0 0) " stroke-linecap="round" />
  <path d="M 485.517 114.759 H 26.483 c -4.875 0 -8.828 3.953 -8.828 8.828 v 44.138 h 476.69 v -44.138 C 494.345 118.711 490.392 114.759 485.517 114.759 z M 114.759 150.069 H 44.138 c -4.875 0 -8.828 -3.953 -8.828 -8.828 s 3.953 -8.828 8.828 -8.828 h 70.621 c 4.875 0 8.828 3.953 8.828 8.828 S 119.634 150.069 114.759 150.069 z M 185.379 150.069 h -35.31 c -4.875 0 -8.828 -3.953 -8.828 -8.828 s 3.953 -8.828 8.828 -8.828 h 35.31 c 4.875 0 8.828 3.953 8.828 8.828 S 190.254 150.069 185.379 150.069 z M 256 150.069 h -35.31 c -4.875 0 -8.828 -3.953 -8.828 -8.828 s 3.953 -8.828 8.828 -8.828 H 256 c 4.875 0 8.828 3.953 8.828 8.828 S 260.875 150.069 256 150.069 z M 326.621 150.069 h -35.31 c -4.875 0 -8.828 -3.953 -8.828 -8.828 s 3.953 -8.828 8.828 -8.828 h 35.31 c 4.875 0 8.828 3.953 8.828 8.828 S 331.496 150.069 326.621 150.069 z M 397.241 150.069 h -35.31 c -4.875 0 -8.828 -3.953 -8.828 -8.828 s 3.953 -8.828 8.828 -8.828 h 35.31 c 4.875 0 8.828 3.953 8.828 8.828 S 402.116 150.069 397.241 150.069 z M 467.862 150.069 h -35.31 c -4.875 0 -8.828 -3.953 -8.828 -8.828 s 3.953 -8.828 8.828 -8.828 h 35.31 c 4.875 0 8.828 3.953 8.828 8.828 S 472.737 150.069 467.862 150.069 z" style="stroke: none; stroke-width: 1; stroke-dasharray: none; stroke-linecap: butt; stroke-linejoin: miter; stroke-miterlimit: 10; fill: #FF6469; fill-rule: nonzero; opacity: 1;" transform=" matrix(1 0 0 1 0 0) " stroke-linecap="round" />
  <path d="M 114.759 132.414 H 44.138 c -4.875 0 -8.828 3.953 -8.828 8.828 s 3.953 8.828 8.828 8.828 h 70.621 c 4.875 0 8.828 -3.953 8.828 -8.828 S 119.634 132.414 114.759 132.414 z" style="stroke: none; stroke-width: 1; stroke-dasharray: none; stroke-linecap: butt; stroke-linejoin: miter; stroke-miterlimit: 10; fill: #FFDC69; fill-rule: nonzero; opacity: 1;" transform=" matrix(1 0 0 1 0 0) " stroke-linecap="round" />
  <path d="M 185.379 132.414 h -35.31 c -4.875 0 -8.828 3.953 -8.828 8.828 s 3.953 8.828 8.828 8.828 h 35.31 c 4.875 0 8.828 -3.953 8.828 -8.828 S 190.254 132.414 185.379 132.414 z" style="stroke: none; stroke-width: 1; stroke-dasharray: none; stroke-linecap: butt; stroke-linejoin: miter; stroke-miterlimit: 10; fill: #D2555F; fill-rule: nonzero; opacity: 1;" transform=" matrix(1 0 0 1 0 0) " stroke-linecap="round" />
  <path d="M 256 132.414 h -35.31 c -4.875 0 -8.828 3.953 -8.828 8.828 s 3.953 8.828 8.828 8.828 H 256 c 4.875 0 8.828 -3.953 8.828 -8.828 S 260.875 132.414 256 132.414 z" style="stroke: none; stroke-width: 1; stroke-dasharray: none; stroke-linecap: butt; stroke-linejoin: miter; stroke-miterlimit: 10; fill: #D2555F; fill-rule: nonzero; opacity: 1;" transform=" matrix(1 0 0 1 0 0) " stroke-linecap="round" />
  <path d="M 326.621 132.414 h -35.31 c -4.875 0 -8.828 3.953 -8.828 8.828 s 3.953 8.828 8.828 8.828 h 35.31 c 4.875 0 8.828 -3.953 8.828 -8.828 S 331.496 132.414 326.621 132.414 z" style="stroke: none; stroke-width: 1; stroke-dasharray: none; stroke-linecap: butt; stroke-linejoin: miter; stroke-miterlimit: 10; fill: #D2555F; fill-rule: nonzero; opacity: 1;" transform=" matrix(1 0 0 1 0 0) " stroke-linecap="round" />
  <path d="M 397.241 132.414 h -35.31 c -4.875 0 -8.828 3.953 -8.828 8.828 s 3.953 8.828 8.828 8.828 h 35.31 c 4.875 0 8.828 -3.953 8.828 -8.828 S 402.116 132.414 397.241 132.414 z" style="stroke: none; stroke-width: 1; stroke-dasharray: none; stroke-linecap: butt; stroke-linejoin: miter; stroke-miterlimit: 10; fill: #D2555F; fill-rule: nonzero; opacity: 1;" transform=" matrix(1 0 0 1 0 0) " stroke-linecap="round" />
  <path d="M 467.862 132.414 h -35.31 c -4.875 0 -8.828 3.953 -8.828 8.828 s 3.953 8.828 8.828 8.828 h 35.31 c 4.875 0 8.828 -3.953 8.828 -8.828 S 472.737 132.414 467.862 132.414 z" style="stroke: none; stroke-width: 1; stroke-dasharray: none; stroke-linecap: butt; stroke-linejoin: miter; stroke-miterlimit: 10; fill: #D2555F; fill-rule: nonzero; opacity: 1;" transform=" matrix(1 0 0 1 0 0) " stroke-linecap="round" />
  <path d="M 273.655 291.31 h 70.621 c 4.875 0 8.828 -3.953 8.828 -8.828 v -70.621 c 0 4.875 -3.953 8.828 -8.828 8.828 h -70.621 c -4.875 0 -8.828 -3.953 -8.828 -8.828 v 70.621 C 264.828 287.358 268.78 291.31 273.655 291.31 z" style="stroke: none; stroke-width: 1; stroke-dasharray: none; stroke-linecap: butt; stroke-linejoin: miter; stroke-miterlimit: 10; fill: #DEE3ED; fill-rule: nonzero; opacity: 1;" transform=" matrix(1 0 0 1 0 0) " stroke-linecap="round" />
  <path d="M 388.414 291.31 h 70.621 c 4.875 0 8.828 -3.953 8.828 -8.828 v -70.621 c 0 4.875 -3.953 8.828 -8.828 8.828 h -70.621 c -4.875 0 -8.828 -3.953 -8.828 -8.828 v 70.621 C 379.586 287.358 383.539 291.31 388.414 291.31 z" style="stroke: none; stroke-width: 1; stroke-dasharray: none; stroke-linecap: butt; stroke-linejoin: miter; stroke-miterlimit: 10; fill: #DEE3ED; fill-rule: nonzero; opacity: 1;" transform=" matrix(1 0 0 1 0 0) " stroke-linecap="round" />
  <path d="M 273.655 220.69 h 70.621 c 4.875 0 8.828 -3.953 8.828 -8.828 v -8.828 c 0 -4.875 -3.953 -8.828 -8.828 -8.828 h -70.621 c -4.875 0 -8.828 3.953 -8.828 8.828 v 8.828 C 264.828 216.737 268.78 220.69 273.655 220.69 z" style="stroke: none; stroke-width: 1; stroke-dasharray: none; stroke-linecap: butt; stroke-linejoin: miter; stroke-miterlimit: 10; fill: #FF969B; fill-rule: nonzero; opacity: 1;" transform=" matrix(1 0 0 1 0 0) " stroke-linecap="round" />
  <path d="M 388.414 220.69 h 70.621 c 4.875 0 8.828 -3.953 8.828 -8.828 v -8.828 c 0 -4.875 -3.953 -8.828 -8.828 -8.828 h -70.621 c -4.875 0 -8.828 3.953 -8.828 8.828 v 8.828 C 379.586 216.737 383.539 220.69 388.414 220.69 z" style="stroke: none; stroke-width: 1; stroke-dasharray: none; stroke-linecap: butt; stroke-linejoin: miter; stroke-miterlimit: 10; fill: #A0DCF0; fill-rule: nonzero; opacity: 1;" transform=" matrix(1 0 0 1 0 0) " stroke-linecap="round" />
  <path d="M 291.31 326.621 v 70.621 c 0 4.875 -3.953 8.828 -8.828 8.828 h 176.552 c 4.875 0 8.828 -3.953 8.828 -8.828 v -70.621 c 0 -4.875 -3.953 -8.828 -8.828 -8.828 H 282.483 C 287.358 317.793 291.31 321.746 291.31 326.621 z" style="stroke: none; stroke-width: 1; stroke-dasharray: none; stroke-linecap: butt; stroke-linejoin: miter; stroke-miterlimit: 10; fill: #DEE3ED; fill-rule: nonzero; opacity: 1;" transform=" matrix(1 0 0 1 0 0) " stroke-linecap="round" />
  <path d="M 273.655 406.069 h 8.828 c 4.875 0 8.828 -3.953 8.828 -8.828 v -70.621 c 0 -4.875 -3.953 -8.828 -8.828 -8.828 h -8.828 c -4.875 0 -8.828 3.953 -8.828 8.828 v 70.621 C 264.828 402.116 268.78 406.069 273.655 406.069 z" style="stroke: none; stroke-width: 1; stroke-dasharray: none; stroke-linecap: butt; stroke-linejoin: miter; stroke-miterlimit: 10; fill: #91E6BE; fill-rule: nonzero; opacity: 1;" transform=" matrix(1 0 0 1 0 0) " stroke-linecap="round" />
  <path d="M 52.966 406.069 h 10.227 v -22.262 c 0 -15.155 11.185 -30.653 25.463 -35.276 l 21.117 -6.18 c 0 0 0.429 -15.23 0.446 -16.759 c -8.961 -8.427 -14.607 -20.41 -14.607 -33.731 v -4.307 c -1.73 -4.135 -6.51 -16.8 -6.51 -30.621 c 0 -16.895 11.671 -30.132 26.571 -30.132 c 0.788 0 1.98 0.086 3.368 0.294 c 10.189 -9.806 24.908 -6.259 37.964 -3.03 c 8.041 1.987 16.364 4.046 20.938 2.146 c 2.636 -1.092 5.685 -0.323 7.505 1.886 c 5.425 6.594 13.382 31.454 1.378 54.306 v 4.019 c 0.021 0.352 0.035 0.687 0 1.038 v 4.401 c 0 13.334 -5.658 25.329 -14.635 33.756 c 0.031 1.566 0.45 16.715 0.45 16.715 l 20.993 6.142 c 14.456 4.681 25.641 20.179 25.641 35.333 v 22.263 h 10.244 c 4.875 0 8.828 -3.953 8.828 -8.828 V 203.034 c 0 -4.875 -3.953 -8.828 -8.828 -8.828 H 52.966 c -4.875 0 -8.828 3.953 -8.828 8.828 v 194.207 C 44.138 402.116 48.09 406.069 52.966 406.069 z" style="stroke: none; stroke-width: 1; stroke-dasharray: none; stroke-linecap: butt; stroke-linejoin: miter; stroke-miterlimit: 10; fill: #FFDC69; fill-rule: nonzero; opacity: 1;" transform=" matrix(1 0 0 1 0 0) " stroke-linecap="round" />
  <path d="M 193.632 348.473 l -20.993 -6.142 c 0 0 -0.419 -15.149 -0.45 -16.715 c 8.977 -8.428 14.635 -20.422 14.635 -33.756 v -4.401 c 0.035 -0.351 0.021 -0.686 0 -1.038 v -4.019 c 12.003 -22.851 4.046 -47.712 -1.378 -54.306 c -1.82 -2.21 -4.868 -2.979 -7.505 -1.886 c -4.573 1.899 -12.897 -0.159 -20.938 -2.146 c -13.056 -3.229 -27.775 -6.776 -37.964 3.03 c -1.388 -0.207 -2.58 -0.294 -3.368 -0.294 c -14.901 0 -26.571 13.237 -26.571 30.132 c 0 13.821 4.779 26.486 6.51 30.621 v 4.307 c 0 13.321 5.646 25.304 14.607 33.731 c -0.017 1.529 -0.446 16.759 -0.446 16.759 l -21.117 6.18 c -14.279 4.623 -25.463 20.121 -25.463 35.276 v 22.261 h 156.082 v -22.262 C 219.274 368.652 208.088 353.154 193.632 348.473 z" style="stroke: none; stroke-width: 1; stroke-dasharray: none; stroke-linecap: butt; stroke-linejoin: miter; stroke-miterlimit: 10; fill: #FF6469; fill-rule: nonzero; opacity: 1;" transform=" matrix(1 0 0 1 0 0) " stroke-linecap="round" />
</g>
</svg>