<?xml version="1.0" encoding="UTF-8" standalone="no" ?>
<!DOCTYPE svg PUBLIC "-//W3C//DTD SVG 1.1//EN" "http://www.w3.org/Graphics/SVG/1.1/DTD/svg11.dtd">
<svg xmlns="http://www.w3.org/2000/svg" xmlns:xlink="http://www.w3.org/1999/xlink" version="1.1" width="118.365" height="132.69" xml:space="preserve">
<desc>Created with Fabric.js 1.6.0-rc.1</desc>
<defs></defs>
<g style="stroke: none; stroke-width: 1; stroke-dasharray: none; stroke-linecap: butt; stroke-linejoin: miter; stroke-miterlimit: 10; fill: none; fill-rule: nonzero; opacity: 1;" transform="translate(10 10) scale(1.91 1.91)" >
  <path d="M 12 0 C 9.694 0 7.781 1.758 7.53 4 L 7.5 5 c 0 2.2 1.8 4 4 4 h 1 h 3 h 2 l 2 -4 h 12 l -1.961 3.921 C 29.521 8.958 29.548 9 29.588 9 h 0.211 H 50.5 V 0 H 12 z" style="stroke: none; stroke-width: 1; stroke-dasharray: none; stroke-linecap: butt; stroke-linejoin: miter; stroke-miterlimit: 10; fill: #EAD8BB; fill-rule: nonzero; opacity: 1;" transform=" matrix(1 0 0 1 0 0) " stroke-linecap="round" />
  <path d="M 29.5 9 v 26.201 c 0 0.505 -0.665 0.69 -0.925 0.256 L 23.5 27 l -5.075 8.458 c -0.26 0.433 -0.925 0.249 -0.925 -0.256 V 9 h -6 c -2.2 0 -4 -1.8 -4 -4 v 48.958 C 7.5 56.19 9.31 58 11.542 58 H 50.5 V 9 H 29.5 z" style="stroke: none; stroke-width: 1; stroke-dasharray: none; stroke-linecap: butt; stroke-linejoin: miter; stroke-miterlimit: 10; fill: #6B4842; fill-rule: nonzero; opacity: 1;" transform=" matrix(1 0 0 1 0 0) " stroke-linecap="round" />
  <path d="M 12.5 9 h -1 c -2.2 0 -4 -1.8 -4 -4 v 48.958 C 7.5 56.19 9.31 58 11.542 58 H 12.5 V 9 z" style="stroke: none; stroke-width: 1; stroke-dasharray: none; stroke-linecap: butt; stroke-linejoin: miter; stroke-miterlimit: 10; fill: #513531; fill-rule: nonzero; opacity: 1;" transform=" matrix(1 0 0 1 0 0) " stroke-linecap="round" />
  <path d="M 50.5 2 h -9 c -0.553 0 -1 0.447 -1 1 s 0.447 1 1 1 h 9 V 2 z" style="stroke: none; stroke-width: 1; stroke-dasharray: none; stroke-linecap: butt; stroke-linejoin: miter; stroke-miterlimit: 10; fill: #D3BEA1; fill-rule: nonzero; opacity: 1;" transform=" matrix(1 0 0 1 0 0) " stroke-linecap="round" />
  <path d="M 50.5 5 h -8 c -0.553 0 -1 0.447 -1 1 s 0.447 1 1 1 h 8 V 5 z" style="stroke: none; stroke-width: 1; stroke-dasharray: none; stroke-linecap: butt; stroke-linejoin: miter; stroke-miterlimit: 10; fill: #D3BEA1; fill-rule: nonzero; opacity: 1;" transform=" matrix(1 0 0 1 0 0) " stroke-linecap="round" />
  <path d="M 19.5 5 l -2 4 v 26.201 c 0 0.505 0.666 0.69 0.925 0.256 L 23.5 27 l 5.075 8.458 c 0.26 0.433 0.925 0.249 0.925 -0.256 V 9 l 2 -4 H 19.5 z" style="stroke: none; stroke-width: 1; stroke-dasharray: none; stroke-linecap: butt; stroke-linejoin: miter; stroke-miterlimit: 10; fill: #DD352E; fill-rule: nonzero; opacity: 1;" transform=" matrix(1 0 0 1 0 0) " stroke-linecap="round" />
  <polygon points="19.5,5 17.5,9 29.5,9 31.5,5 " style="stroke: none; stroke-width: 1; stroke-dasharray: none; stroke-linecap: butt; stroke-linejoin: miter; stroke-miterlimit: 10; fill: #B02721; fill-rule: nonzero; opacity: 1;" transform="  matrix(1 0 0 1 0 0) "/>
</g>
</svg>